<svg xmlns="http://www.w3.org/2000/svg" viewBox="0 0 75.76 75.75"><title>VK</title><path d="M37.6,74.9c-9.32,0-18.65,0-28,0a8.8,8.8,0,0,1-9-7.34A10.5,10.5,0,0,1,.54,65.7q0-27.9,0-55.79C.54,4.43,4.27.67,9.76.66q27.89,0,55.78,0c5.49,0,9.23,3.76,9.23,9.25q0,27.9,0,55.79a8.84,8.84,0,0,1-7.23,9.07,11.82,11.82,0,0,1-2.22.13Zm0-70.71H9.84C6.2,4.2,4.06,6.32,4.06,9.94q0,27.84,0,55.7a6.44,6.44,0,0,0,.19,1.85C5,70,7,71.39,10,71.39q27.63,0,55.26,0a7.76,7.76,0,0,0,2-.19c2.53-.69,3.94-2.72,3.94-5.74V10.11a7.26,7.26,0,0,0-.21-2c-.69-2.47-2.68-3.88-5.51-3.89Z"/><path d="M30.46,35.09a23.16,23.16,0,0,0,0-6.44,1.34,1.34,0,0,0-1.1-1.21c-2-.55-2.39-2.11-1-3.64a4.85,4.85,0,0,1,2.82-1.59,21,21,0,0,1,8.65.09c2.35.57,3.32,1.85,3.34,4.29s-.09,4.63-.13,6.94c0,.5,0,1,0,1.59A2.61,2.61,0,0,0,44.26,34,41.14,41.14,0,0,0,49,25.8a3.5,3.5,0,0,1,2.63-2,5.26,5.26,0,0,1,.89-.07c2.58,0,5.17,0,7.75,0h.53c2.87.12,4.09,2.07,2.92,4.69a26.82,26.82,0,0,1-3,4.75c-1.37,1.9-2.72,3.82-4.16,5.67-.59.77-.46,1.25.2,1.86a56.8,56.8,0,0,1,4.65,4.66,16.29,16.29,0,0,1,2.12,3c1.34,2.52.17,5.05-2.68,5.33a51.82,51.82,0,0,1-8.72,0,6.62,6.62,0,0,1-3.77-1.86c-1.31-1.14-2.32-2.55-3.54-3.76-.28-.28-.52-.83-1-.66s-.39.75-.44,1.18-.06.72-.11,1.07a2.5,2.5,0,0,1-2.27,2.28c-3.58.14-7.18.4-10.7-.63s-6-3.31-8.18-6A93.64,93.64,0,0,1,11.49,27.78c-1-2.11.13-4,2.5-4.09,2.52-.07,5-.08,7.57,0a3.68,3.68,0,0,1,3.32,2.17,67.52,67.52,0,0,0,4.78,8.23C29.86,34.36,30.1,34.63,30.46,35.09Zm2.67-9.39a6.22,6.22,0,0,1,.74,1.75,24.66,24.66,0,0,1-.14,9.38,2.93,2.93,0,0,1-4.85,1.69,8.39,8.39,0,0,1-1.71-1.81A67.17,67.17,0,0,1,22,28a1.34,1.34,0,0,0-1.39-.83c-1.54,0-3.09,0-4.63,0-.66,0-.79.15-.46.74,1.13,2,2.19,4.08,3.36,6.08a58.78,58.78,0,0,0,7.75,10.84,10.41,10.41,0,0,0,8,3.57c1.43,0,2.85,0,4.28,0,.87,0,1.22-.18,1.29-1.13a4,4,0,0,1,2.65-3.5,3.49,3.49,0,0,1,3.83.94c.5.43.94.92,1.39,1.39.87.93,1.71,1.89,2.61,2.8a3.63,3.63,0,0,0,2.59,1.23h6.24c.31,0,.75.11.89-.2s-.22-.58-.4-.84a31.68,31.68,0,0,0-4.32-4.72c-.69-.66-1.38-1.31-2-2a4,4,0,0,1-.59-4.72,16.68,16.68,0,0,1,2.07-3A65.32,65.32,0,0,0,60,28c.37-.6.31-.8-.43-.78-2.16,0-4.33.06-6.5,0a1.08,1.08,0,0,0-1.14.73,46.82,46.82,0,0,1-4.2,7.43,11.85,11.85,0,0,1-3.14,3.25c-2.07,1.35-4.1.59-4.81-1.78a10.33,10.33,0,0,1-.31-3.18c0-2.32.1-4.63.17-6.95a.9.9,0,0,0-.81-1.05A16,16,0,0,0,33.13,25.7Z"/></svg>